<svg xmlns="http://www.w3.org/2000/svg" height="311" width="89"><defs><pattern id="checkerPattern" viewBox="0,0,10,10" width="10" height="10" patternUnits="userSpaceOnUse"><path d="M0,0v10h10V0" fill="#555"/><path d="M0,5h10V0h-5v10H0" fill="#fff"/></pattern></defs><g class="axis" fill="none" font-size="10" font-family="sans-serif" text-anchor="start" transform="translate(36, 6)"><path class="domain" stroke="currentColor" d="M6,299.5H0.5V0.5H6"/><g class="tick" opacity="1" transform="translate(0,284.04999999999995)"><line stroke="currentColor" x2="6"/><text fill="currentColor" x="9" dy="0.32em">1</text></g><g class="tick" opacity="1" transform="translate(0,254.14999999999998)"><line stroke="currentColor" x2="6"/><text fill="currentColor" x="9" dy="0.32em">2</text></g><g class="tick" opacity="1" transform="translate(0,224.24999999999997)"><line stroke="currentColor" x2="6"/><text fill="currentColor" x="9" dy="0.32em">3</text></g><g class="tick" opacity="1" transform="translate(0,194.34999999999997)"><line stroke="currentColor" x2="6"/><text fill="currentColor" x="9" dy="0.32em">4</text></g><g class="tick" opacity="1" transform="translate(0,164.45)"><line stroke="currentColor" x2="6"/><text fill="currentColor" x="9" dy="0.32em">5</text></g><g class="tick" opacity="1" transform="translate(0,134.54999999999998)"><line stroke="currentColor" x2="6"/><text fill="currentColor" x="9" dy="0.32em">6</text></g><g class="tick" opacity="1" transform="translate(0,104.64999999999999)"><line stroke="currentColor" x2="6"/><text fill="currentColor" x="9" dy="0.32em">7</text></g><g class="tick" opacity="1" transform="translate(0,74.75)"><line stroke="currentColor" x2="6"/><text fill="currentColor" x="9" dy="0.32em">8</text></g><g class="tick" opacity="1" transform="translate(0,44.849999999999994)"><line stroke="currentColor" x2="6"/><text fill="currentColor" x="9" dy="0.32em">9</text></g><g class="tick" opacity="1" transform="translate(0,14.95)"><line stroke="currentColor" x2="6"/><text fill="currentColor" x="9" dy="0.32em">10</text></g></g><g class="colorbar" transform="translate(6, 6)"><rect class="border" fill="transparent" stroke="currentColor" x="0" y="0" stroke-width="2" width="30" height="300"/><rect class="background" fill="url(#checkerPattern)" stroke-width="0" width="30" height="300"/><rect stroke-width="0" class="color" fill="#a63603" height="30" width="30" y="0" x="0"/><rect stroke-width="0" class="color" fill="#e6550d" height="30" width="30" y="30" x="0"/><rect stroke-width="0" class="color" fill="#fd8d3c" height="30" width="30" y="60" x="0"/><rect stroke-width="0" class="color" fill="#fdbe85" height="30" width="30" y="90" x="0"/><rect stroke-width="0" class="color" fill="#feedde" height="30" width="30" y="120" x="0"/><rect stroke-width="0" class="color" fill="#a63603" height="30" width="30" y="150" x="0"/><rect stroke-width="0" class="color" fill="#e6550d" height="30" width="30" y="180" x="0"/><rect stroke-width="0" class="color" fill="#fd8d3c" height="30" width="30" y="210" x="0"/><rect stroke-width="0" class="color" fill="#fdbe85" height="30" width="30" y="240" x="0"/><rect stroke-width="0" class="color" fill="#feedde" height="30" width="30" y="270" x="0"/></g><g class="title" transform="translate(70.5, 6)"><text fill="currentColor" transform="translate(0, 150)rotate(-90)" style="text-anchor: middle;">Ordinal Oranges[5]</text></g></svg>