<svg xmlns="http://www.w3.org/2000/svg" height="87" width="511"><defs><pattern id="checkerPattern" viewBox="0,0,10,10" width="10" height="10" patternUnits="userSpaceOnUse"><path d="M0,0v10h10V0" fill="#555"/><path d="M0,5h10V0h-5v10H0" fill="#fff"/></pattern></defs><g class="axis" fill="none" font-size="10" font-family="sans-serif" text-anchor="middle" transform="translate(6, 36)"><path class="domain" stroke="currentColor" d="M0.5,6V0.5H499.5V6"/><g class="tick" opacity="1" transform="translate(49.9,0)"><line stroke="currentColor" y2="6"/><text fill="currentColor" y="9" dy="0.71em">foo</text></g><g class="tick" opacity="1" transform="translate(149.7,0)"><line stroke="currentColor" y2="6"/><text fill="currentColor" y="9" dy="0.71em">bar</text></g><g class="tick" opacity="1" transform="translate(249.5,0)"><line stroke="currentColor" y2="6"/><text fill="currentColor" y="9" dy="0.71em">alice</text></g><g class="tick" opacity="1" transform="translate(349.29999999999995,0)"><line stroke="currentColor" y2="6"/><text fill="currentColor" y="9" dy="0.71em">bob</text></g><g class="tick" opacity="1" transform="translate(449.09999999999997,0)"><line stroke="currentColor" y2="6"/><text fill="currentColor" y="9" dy="0.71em">abc</text></g></g><g class="colorbar" transform="translate(6, 6)"><rect class="border" fill="transparent" stroke="currentColor" x="0" y="0" stroke-width="2" width="500" height="30"/><rect class="background" fill="url(#checkerPattern)" stroke-width="0" width="500" height="30"/><rect stroke-width="0" class="color" fill="#1f77b4" width="100" height="30" x="0" y="0"/><rect stroke-width="0" class="color" fill="#ff7f0e" width="100" height="30" x="100" y="0"/><rect stroke-width="0" class="color" fill="#2ca02c" width="100" height="30" x="200" y="0"/><rect stroke-width="0" class="color" fill="#d62728" width="100" height="30" x="300" y="0"/><rect stroke-width="0" class="color" fill="#9467bd" width="100" height="30" x="400" y="0"/></g><g class="title" transform="translate(6, 68.5)"><text fill="currentColor" transform="translate(250, 0)rotate(0)" style="text-anchor: middle;">Ordinal Category10</text></g></svg>