<svg xmlns="http://www.w3.org/2000/svg" height="87" width="311"><defs><pattern id="checkerPattern" viewBox="0,0,10,10" width="10" height="10" patternUnits="userSpaceOnUse"><path d="M0,0v10h10V0" fill="#555"/><path d="M0,5h10V0h-5v10H0" fill="#fff"/></pattern></defs><g class="axis" fill="none" font-size="10" font-family="sans-serif" text-anchor="middle" transform="translate(6, 36)"><path class="domain" stroke="currentColor" d="M0.5,6V0.5H299.5V6"/><g class="tick" opacity="1" transform="translate(24.916666666666668,0)"><line stroke="currentColor" y2="6"/><text fill="currentColor" y="9" dy="0.71em">H</text></g><g class="tick" opacity="1" transform="translate(74.75,0)"><line stroke="currentColor" y2="6"/><text fill="currentColor" y="9" dy="0.71em">He</text></g><g class="tick" opacity="1" transform="translate(124.58333333333334,0)"><line stroke="currentColor" y2="6"/><text fill="currentColor" y="9" dy="0.71em">Li</text></g><g class="tick" opacity="1" transform="translate(174.41666666666666,0)"><line stroke="currentColor" y2="6"/><text fill="currentColor" y="9" dy="0.71em">Be</text></g><g class="tick" opacity="1" transform="translate(224.25,0)"><line stroke="currentColor" y2="6"/><text fill="currentColor" y="9" dy="0.71em">B</text></g><g class="tick" opacity="1" transform="translate(274.08333333333337,0)"><line stroke="currentColor" y2="6"/><text fill="currentColor" y="9" dy="0.71em">C</text></g></g><g class="colorbar" transform="translate(6, 6)"><rect class="border" fill="transparent" stroke="currentColor" x="0" y="0" stroke-width="2" width="300" height="30"/><rect class="background" fill="url(#checkerPattern)" stroke-width="0" width="300" height="30"/><rect stroke-width="0" class="color" fill="#c60c" width="50" height="30" x="0" y="0"/><rect stroke-width="0" class="color" fill="#0a03" width="50" height="30" x="50" y="0"/><rect stroke-width="0" class="color" fill="#0888" width="50" height="30" x="100" y="0"/><rect stroke-width="0" class="color" fill="#c60c" width="50" height="30" x="150" y="0"/><rect stroke-width="0" class="color" fill="#0a03" width="50" height="30" x="200" y="0"/><rect stroke-width="0" class="color" fill="#0888" width="50" height="30" x="250" y="0"/></g><g class="title" transform="translate(6, 68.5)"><text fill="currentColor" transform="translate(150, 0)rotate(0)" style="text-anchor: middle;">Transparent ordinal triplet</text></g></svg>